<?xml version="1.0" encoding="UTF-8" standalone="no"?>
<svg
   version="1.1"
   id="svg2"
   xml:space="preserve"
   width="45"
   height="55"
   viewBox="0 0 70 80"
   sodipodi:docname="prisma-vertical.svg"
   inkscape:version="1.1.1 (3bf5ae0d25, 2021-09-20)"
   xmlns:inkscape="http://www.inkscape.org/namespaces/inkscape"
   xmlns:sodipodi="http://sodipodi.sourceforge.net/DTD/sodipodi-0.dtd"
   xmlns="http://www.w3.org/2000/svg"
   xmlns:svg="http://www.w3.org/2000/svg"
   xmlns:rdf="http://www.w3.org/1999/02/22-rdf-syntax-ns#"
   xmlns:cc="http://creativecommons.org/ns#"
   xmlns:dc="http://purl.org/dc/elements/1.1/"><metadata
     id="metadata8"><rdf:RDF><cc:Work
         rdf:about=""><dc:format>image/svg+xml</dc:format><dc:type
           rdf:resource="http://purl.org/dc/dcmitype/StillImage" /></cc:Work></rdf:RDF></metadata><defs
     id="defs6"><clipPath
       clipPathUnits="userSpaceOnUse"
       id="clipPath50"><path
         d="M 0,612 H 792 V 0 H 0 Z"
         id="path48" /></clipPath></defs><sodipodi:namedview
     pagecolor="#ffffff"
     bordercolor="#666666"
     borderopacity="1"
     objecttolerance="10"
     gridtolerance="10"
     guidetolerance="10"
     inkscape:pageopacity="0"
     inkscape:pageshadow="2"
     inkscape:window-width="1920"
     inkscape:window-height="1015"
     id="namedview4"
     inkscape:pagecheckerboard="0"
     showgrid="false"
     inkscape:zoom="2.8700216"
     inkscape:cx="20.557337"
     inkscape:cy="20.557337"
     inkscape:window-x="0"
     inkscape:window-y="0"
     inkscape:window-maximized="1"
     inkscape:current-layer="g10"
     width="70px" /><g
     id="g10"
     inkscape:groupmode="layer"
     inkscape:label="prisma vertical"
     transform="matrix(1.3333333,0,0,-1.3333333,0,816)"><g
       id="g12"
       transform="matrix(0.40441847,0,0,0.38141492,47.490795,560.18584)"><path
         d="M 0,0 -51.63,-18.06 -103.26,0 l 7.3,2.9 44.33,17.6 43.891,-17.42 z"
         style="fill:#ffffff;fill-opacity:1;fill-rule:nonzero;stroke:none"
         id="path14" /></g><g
       id="g16"
       transform="matrix(0.40441847,0,0,0.38141492,50.471394,561.16992)"><path
         d="M 0,0 -7.359,-2.58 H -7.37 L -15.109,0.5 -59,17.92 l -44.33,-17.6 -7.3,-2.9 h -0.01 L -118,0 -110.81,2.85 -59,23.41 -7.699,3.05 Z"
         style="fill:#ffffff;fill-opacity:1;fill-rule:nonzero;stroke:none"
         id="path18" /></g><g
       id="g20"
       transform="matrix(0.40441847,0,0,0.38141492,47.490795,560.18584)"><path
         d="M 0,0 -51.63,-18.06 -103.26,0 l 7.3,2.9 44.33,17.6 43.891,-17.42 z"
         style="fill:#ffffff;fill-opacity:1;fill-rule:nonzero;stroke:none"
         id="path22" /></g><g
       id="g24"
       transform="matrix(0.40441847,0,0,0.38141492,47.490795,560.18584)"><path
         d="M 0,0 -51.63,-18.06 -103.26,0 l 7.3,2.9 44.33,17.6 43.891,-17.42 z"
         style="fill:#1d1d1b;fill-opacity:1;fill-rule:nonzero;stroke:none"
         id="path26" /></g><g
       id="g28"
       transform="matrix(0.40441847,0,0,0.38141492,44.360877,561.36066)"><path
         d="m 0,0 -43.891,-15.14 -44.33,14.96 44.33,17.6 z"
         style="fill:#ffffff;fill-opacity:1;fill-rule:nonzero;stroke:none"
         id="path30" /></g><g
       id="g32"
       transform="matrix(0.40441847,0,0,0.38141492,26.611477,570.09965)"><path
         d="M 0,0 V 105.414 L 59,-23.412 Z"
         style="fill:#1d1d1b;fill-opacity:1;fill-rule:nonzero;stroke:none"
         id="path34" /></g><g
       id="g36"
       transform="matrix(0.40441847,0,0,0.38141492,26.611477,570.09965)"><path
         d="M 0,0 V 105.414 L -59,-23.412 Z"
         style="fill:#1d1d1b;fill-opacity:1;fill-rule:nonzero;stroke:none"
         id="path38" /></g><g
       id="g40"
       transform="matrix(0.40441847,0,0,0.38141492,26.611477,570.09965)"><path
         d="M 0,0 -51.816,-20.562 0,92.016 Z"
         style="fill:#fcbf00;fill-opacity:1;fill-rule:nonzero;stroke:none"
         id="path42" /></g></g></svg>
