<?xml version="1.0" encoding="UTF-8" standalone="no"?>
<svg
   version="1.1"
   id="svg2"
   xml:space="preserve"
   width="260"
   height="70"
   viewBox="0 0 260 70"
   sodipodi:docname="prisma-logo2.svg"
   inkscape:version="1.1 (c4e8f9ed74, 2021-05-24)"
   xmlns:inkscape="http://www.inkscape.org/namespaces/inkscape"
   xmlns:sodipodi="http://sodipodi.sourceforge.net/DTD/sodipodi-0.dtd"
   xmlns="http://www.w3.org/2000/svg"
   xmlns:svg="http://www.w3.org/2000/svg"
   xmlns:rdf="http://www.w3.org/1999/02/22-rdf-syntax-ns#"
   xmlns:cc="http://creativecommons.org/ns#"
   xmlns:dc="http://purl.org/dc/elements/1.1/"><metadata
     id="metadata8"><rdf:RDF><cc:Work
         rdf:about=""><dc:format>image/svg+xml</dc:format><dc:type
           rdf:resource="http://purl.org/dc/dcmitype/StillImage" /></cc:Work></rdf:RDF></metadata><defs
     id="defs6"><clipPath
       clipPathUnits="userSpaceOnUse"
       id="clipPath50"><path
         d="M 0,612 H 792 V 0 H 0 Z"
         id="path48" /></clipPath></defs><sodipodi:namedview
     pagecolor="#ffffff"
     bordercolor="#666666"
     borderopacity="1"
     objecttolerance="10"
     gridtolerance="10"
     guidetolerance="10"
     inkscape:pageopacity="0"
     inkscape:pageshadow="2"
     inkscape:window-width="1920"
     inkscape:window-height="1015"
     id="namedview4"
     inkscape:pagecheckerboard="0"
     showgrid="false"
     width="900px"
     inkscape:zoom="2.0294117"
     inkscape:cx="35.971015"
     inkscape:cy="18.231884"
     inkscape:window-x="0"
     inkscape:window-y="0"
     inkscape:window-maximized="1"
     inkscape:current-layer="g46" /><g
     id="g10"
     inkscape:groupmode="layer"
     inkscape:label="prisma-logo"
     transform="matrix(1.3333333,0,0,-1.3333333,0,816)"><g
       id="g12"
       transform="matrix(0.35081615,0,0,0.29863079,41.253109,568.57073)"><path
         d="M 0,0 -51.63,-18.06 -103.26,0 l 7.3,2.9 44.33,17.6 43.891,-17.42 z"
         style="fill:#ffffff;fill-opacity:1;fill-rule:nonzero;stroke:none"
         id="path14" /></g><g
       id="g16"
       transform="matrix(0.35081615,0,0,0.29863079,43.838659,569.34123)"><path
         d="M 0,0 -7.359,-2.58 H -7.37 L -15.109,0.5 -59,17.92 l -44.33,-17.6 -7.3,-2.9 h -0.01 L -118,0 -110.81,2.85 -59,23.41 -7.699,3.05 Z"
         style="fill:#ffffff;fill-opacity:1;fill-rule:nonzero;stroke:none"
         id="path18" /></g><g
       id="g20"
       transform="matrix(0.35081615,0,0,0.29863079,41.253109,568.57073)"><path
         d="M 0,0 -51.63,-18.06 -103.26,0 l 7.3,2.9 44.33,17.6 43.891,-17.42 z"
         style="fill:#ffffff;fill-opacity:1;fill-rule:nonzero;stroke:none"
         id="path22" /></g><g
       id="g24"
       transform="matrix(0.35081615,0,0,0.29863079,41.253109,568.57073)"><path
         d="M 0,0 -51.63,-18.06 -103.26,0 l 7.3,2.9 44.33,17.6 43.891,-17.42 z"
         style="fill:#1d1d1b;fill-opacity:1;fill-rule:nonzero;stroke:none"
         id="path26" /></g><g
       id="g28"
       transform="matrix(0.35081615,0,0,0.29863079,38.538075,569.49054)"><path
         d="m 0,0 -43.891,-15.14 -44.33,14.96 44.33,17.6 z"
         style="fill:#ffffff;fill-opacity:1;fill-rule:nonzero;stroke:none"
         id="path30" /></g><g
       id="g32"
       transform="matrix(0.35081615,0,0,0.29863079,23.141208,576.33281)"><path
         d="M 0,0 V 105.414 L 59,-23.412 Z"
         style="fill:#1d1d1b;fill-opacity:1;fill-rule:nonzero;stroke:none"
         id="path34" /></g><g
       id="g36"
       transform="matrix(0.35081615,0,0,0.29863079,23.141208,576.33281)"><path
         d="M 0,0 V 105.414 L -59,-23.412 Z"
         style="fill:#1d1d1b;fill-opacity:1;fill-rule:nonzero;stroke:none"
         id="path38" /></g><g
       id="g40"
       transform="matrix(0.35081615,0,0,0.29863079,23.141208,576.33281)"><path
         d="M 0,0 -51.816,-20.562 0,92.015 Z"
         style="fill:#fcbf00;fill-opacity:1;fill-rule:nonzero;stroke:none"
         id="path42" /></g><g
       id="g44"
       transform="matrix(0.35081615,0,0,0.29863079,-29.78818,495.00988)"><g
         id="g46"
         clip-path="url(#clipPath50)"><g
           id="g52"
           transform="translate(239.8193,282.1455)"><path
             d="M 0,0 H 5.609 L 2.805,7.293 Z M -4.95,-6.369 0.726,7.985 c 0.109,0.33 0.165,0.606 0.165,0.827 0,0.482 -0.297,0.912 -0.891,1.286 h 4.686 l 7.062,-16.929 c 0.153,-0.33 0.335,-0.639 0.544,-0.924 0.209,-0.287 0.38,-0.501 0.512,-0.643 0.132,-0.144 0.346,-0.353 0.643,-0.628 0.297,-0.275 0.512,-0.478 0.644,-0.61 H 7.787 c 0.727,0.33 1.09,0.791 1.09,1.386 0,0.153 -0.023,0.318 -0.066,0.495 C 8.767,-7.579 8.706,-7.397 8.629,-7.21 8.552,-7.024 8.502,-6.897 8.48,-6.831 L 6.566,-2.112 H -0.76 l -1.847,-5.181 c -0.023,-0.066 -0.05,-0.165 -0.082,-0.298 -0.034,-0.131 -0.062,-0.242 -0.083,-0.329 -0.023,-0.089 -0.034,-0.154 -0.034,-0.198 0,-0.221 0.038,-0.397 0.117,-0.528 0.076,-0.132 0.251,-0.32 0.527,-0.561 0.275,-0.243 0.434,-0.386 0.478,-0.429 h -5.84 c 1.429,0.99 2.288,2.078 2.574,3.267"
             style="fill:#f9f9f9;fill-opacity:1;fill-rule:nonzero;stroke:none"
             id="path54" /></g><g
           id="g56"
           transform="translate(256.0537,287.0293)"><path
             d="m 0,0 c 0,1.869 0.677,3.283 2.029,4.24 1.354,0.957 3.009,1.436 4.967,1.436 h 0.759 c 2.046,0 3.531,-0.231 4.455,-0.694 V 1.716 C 11.594,2.178 10.796,2.585 9.817,2.938 8.839,3.289 7.92,3.465 7.062,3.465 5.5,3.465 4.39,2.882 3.729,1.716 3.531,1.122 3.433,0.803 3.433,0.76 c 0,-0.617 0.324,-1.217 0.972,-1.799 0.65,-0.584 1.458,-1.084 2.426,-1.502 l 3.268,-1.65 c 0.593,-0.286 1.16,-0.616 1.699,-0.991 0.539,-0.373 1.056,-0.906 1.551,-1.599 0.495,-0.694 0.742,-1.403 0.742,-2.129 0,-1.914 -0.803,-3.438 -2.408,-4.57 -1.607,-1.133 -3.609,-1.7 -6.007,-1.7 -1.716,0 -3.454,0.297 -5.214,0.891 l -0.692,3.728 c 1.847,-1.584 3.893,-2.375 6.137,-2.375 1.1,0 2.073,0.219 2.921,0.661 0.847,0.439 1.347,1.011 1.501,1.714 0.044,0.2 0.067,0.474 0.067,0.827 0,1.165 -1.035,2.309 -3.103,3.431 L 3.96,-4.652 C 3.014,-4.235 2.146,-3.619 1.354,-2.805 0.562,-1.991 0.11,-1.057 0,0"
             style="fill:#ffffff;fill-opacity:1;fill-rule:nonzero;stroke:none"
             id="path58" /></g><g
           id="g60"
           transform="translate(275.458,275.084)"><path
             d="m 0,0 v 13.661 c 0,0.506 -0.011,0.902 -0.032,1.189 -0.023,0.285 -0.127,0.631 -0.314,1.039 -0.187,0.407 -0.467,0.754 -0.841,1.039 h 9.635 c 0.638,0 1.111,0.078 1.419,0.231 V 13.43 c -0.681,0.814 -2.123,1.221 -4.323,1.221 -1.1,0 -1.936,-0.022 -2.508,-0.065 V 9.174 h 2.838 c 1.101,0 1.804,0.076 2.112,0.23 v -3.3 C 7.591,6.742 6.655,7.062 5.182,7.062 H 3.036 V 0 c 2.2,-0.33 3.598,-0.496 4.192,-0.496 2.133,0 3.96,0.627 5.477,1.881 L 11.022,-2.574 H -1.187 C -0.396,-1.805 0,-0.947 0,0"
             style="fill:#ffffff;fill-opacity:1;fill-rule:nonzero;stroke:none"
             id="path62" /></g><g
           id="g64"
           transform="translate(291.0996,287.0293)"><path
             d="m 0,0 c 0,1.869 0.677,3.283 2.029,4.24 1.354,0.957 3.009,1.436 4.967,1.436 h 0.759 c 2.046,0 3.531,-0.231 4.455,-0.694 V 1.716 C 11.594,2.178 10.796,2.585 9.817,2.938 8.839,3.289 7.92,3.465 7.062,3.465 5.5,3.465 4.39,2.882 3.729,1.716 3.531,1.122 3.433,0.803 3.433,0.76 c 0,-0.617 0.324,-1.217 0.972,-1.799 0.65,-0.584 1.458,-1.084 2.426,-1.502 l 3.268,-1.65 c 0.593,-0.286 1.16,-0.616 1.699,-0.991 0.539,-0.373 1.056,-0.906 1.551,-1.599 0.495,-0.694 0.742,-1.403 0.742,-2.129 0,-1.914 -0.803,-3.438 -2.408,-4.57 -1.607,-1.133 -3.609,-1.7 -6.007,-1.7 -1.716,0 -3.454,0.297 -5.214,0.891 l -0.692,3.728 c 1.847,-1.584 3.893,-2.375 6.137,-2.375 1.1,0 2.073,0.219 2.921,0.661 0.847,0.439 1.347,1.011 1.501,1.714 0.044,0.2 0.067,0.474 0.067,0.827 0,1.165 -1.035,2.309 -3.103,3.431 L 3.96,-4.652 C 3.014,-4.235 2.146,-3.619 1.354,-2.805 0.562,-1.991 0.11,-1.057 0,0"
             style="fill:#f9f9f9;fill-opacity:1;fill-rule:nonzero;stroke:none"
             id="path66" /></g><g
           id="g68"
           transform="translate(312.0547,282.1455)"><path
             d="m 0,0 c 0,-2.31 0.78,-4.224 2.343,-5.742 1.561,-1.519 3.377,-2.277 5.444,-2.277 2.09,0 3.79,0.743 5.099,2.227 1.308,1.485 1.964,3.239 1.964,5.264 V 0 C 14.718,2.155 13.947,4.063 12.54,5.726 11.132,7.386 9.316,8.217 7.095,8.217 5.247,8.217 3.597,7.524 2.145,6.138 0.692,4.752 -0.033,2.859 -0.033,0.462 -0.033,0.417 -0.028,0.335 -0.017,0.214 -0.006,0.093 0,0.021 0,0 m -3.729,-0.231 c 0,1.144 0.198,2.294 0.593,3.449 0.397,1.154 1.001,2.281 1.816,3.382 0.813,1.1 1.968,1.997 3.465,2.69 1.496,0.692 3.222,1.039 5.18,1.039 3.147,0 5.742,-0.902 7.788,-2.706 2.046,-1.804 3.147,-4.269 3.301,-7.392 0,-1.167 -0.221,-2.349 -0.66,-3.547 -0.441,-1.201 -1.073,-2.333 -1.898,-3.4 -0.825,-1.067 -1.942,-1.935 -3.349,-2.607 -1.408,-0.67 -2.982,-1.006 -4.72,-1.006 -3.497,0 -6.231,0.934 -8.2,2.805 -1.969,1.87 -3.074,4.3 -3.316,7.293"
             style="fill:#ffffff;fill-opacity:1;fill-rule:nonzero;stroke:none"
             id="path70" /></g><g
           id="g72"
           transform="translate(334.8906,274.8525)"><path
             d="m 0,0 v 14.586 c 0,0.483 -0.016,0.895 -0.049,1.237 -0.033,0.341 -0.121,0.621 -0.264,0.842 -0.143,0.219 -0.231,0.357 -0.264,0.412 -0.033,0.055 -0.182,0.16 -0.445,0.314 l -0.364,0.231 h 6.601 c 2.111,0 3.806,-0.402 5.082,-1.205 1.275,-0.803 1.914,-2.041 1.914,-3.713 0,-1.407 -0.474,-2.596 -1.42,-3.563 C 9.846,8.173 8.768,7.557 7.558,7.293 7.932,6.831 8.509,6.089 9.29,5.065 c 0.78,-1.023 1.391,-1.804 1.831,-2.343 0.441,-0.539 0.995,-1.177 1.667,-1.914 0.671,-0.737 1.325,-1.358 1.964,-1.864 0.638,-0.506 1.297,-0.935 1.979,-1.287 h -3.266 c -0.705,0 -1.316,0.12 -1.832,0.364 -0.517,0.241 -1.095,0.736 -1.733,1.484 l -6.137,8.25 c 1.958,0.726 3.31,1.357 4.058,1.897 0.748,0.538 1.122,1.304 1.122,2.294 v 0.494 c 0,0.969 -0.33,1.717 -0.99,2.245 -0.659,0.528 -1.595,0.793 -2.805,0.793 -0.593,0 -1.21,-0.067 -1.847,-0.2 V 0.231 c 0,-1.253 0.462,-2.113 1.386,-2.574 H -1.386 C -0.462,-2.124 0,-1.343 0,0"
             style="fill:#ffffff;fill-opacity:1;fill-rule:nonzero;stroke:none"
             id="path74" /></g><g
           id="g76"
           transform="translate(352.9082,275.084)"><path
             d="m 0,0 v 14.354 c 0,1.32 -0.473,2.255 -1.419,2.805 H 4.422 C 3.938,16.785 3.586,16.384 3.366,15.955 3.146,15.525 3.036,14.916 3.036,14.123 V 0 c 0,-0.484 0.198,-1.008 0.594,-1.568 0.396,-0.561 0.836,-0.897 1.32,-1.006 h -6.599 c 0.395,0.132 0.769,0.428 1.122,0.89 C -0.176,-1.222 0,-0.66 0,0 m -3.267,18.084 6.765,4.752 1.914,-2.113 z"
             style="fill:#ffffff;fill-opacity:1;fill-rule:nonzero;stroke:none"
             id="path78" /></g><g
           id="g80"
           transform="translate(367.2637,282.1455)"><path
             d="M 0,0 H 5.609 L 2.805,7.293 Z M -4.95,-6.369 0.726,7.985 c 0.109,0.33 0.165,0.606 0.165,0.827 0,0.482 -0.297,0.912 -0.891,1.286 h 4.686 l 7.062,-16.929 c 0.153,-0.33 0.335,-0.639 0.544,-0.924 0.209,-0.287 0.38,-0.501 0.512,-0.643 0.132,-0.144 0.346,-0.353 0.643,-0.628 0.297,-0.275 0.512,-0.478 0.644,-0.61 H 7.787 c 0.727,0.33 1.09,0.791 1.09,1.386 0,0.153 -0.023,0.318 -0.066,0.495 C 8.767,-7.579 8.706,-7.397 8.629,-7.21 8.552,-7.024 8.502,-6.897 8.48,-6.831 L 6.566,-2.112 H -0.76 l -1.847,-5.181 c -0.023,-0.066 -0.05,-0.165 -0.082,-0.298 -0.034,-0.131 -0.062,-0.242 -0.083,-0.329 -0.023,-0.089 -0.034,-0.154 -0.034,-0.198 0,-0.221 0.038,-0.397 0.117,-0.528 0.076,-0.132 0.251,-0.32 0.527,-0.561 0.275,-0.243 0.434,-0.386 0.478,-0.429 h -5.84 c 1.429,0.99 2.288,2.078 2.574,3.267"
             style="fill:#ffffff;fill-opacity:1;fill-rule:nonzero;stroke:none"
             id="path82" /></g><g
           id="g84"
           transform="translate(400.5596,275.084)"><path
             d="m 0,0 v 13.661 c 0,0.506 -0.011,0.902 -0.032,1.189 -0.023,0.285 -0.127,0.631 -0.314,1.039 -0.187,0.407 -0.467,0.754 -0.841,1.039 h 9.635 c 0.638,0 1.111,0.078 1.419,0.231 V 13.43 c -0.681,0.814 -2.123,1.221 -4.323,1.221 -1.1,0 -1.936,-0.022 -2.508,-0.065 V 9.174 h 2.838 c 1.101,0 1.804,0.076 2.112,0.23 v -3.3 C 7.591,6.742 6.655,7.062 5.182,7.062 H 3.036 V 0 c 2.2,-0.33 3.598,-0.496 4.192,-0.496 2.133,0 3.96,0.627 5.477,1.881 L 11.022,-2.574 H -1.187 C -0.396,-1.805 0,-0.947 0,0"
             style="fill:#f9f9f9;fill-opacity:1;fill-rule:nonzero;stroke:none"
             id="path86" /></g><g
           id="g88"
           transform="translate(418.0166,275.3145)"><path
             d="m 0,0 v 13.431 c 0,0.528 -0.033,0.984 -0.1,1.37 -0.065,0.385 -0.192,0.703 -0.379,0.957 -0.187,0.252 -0.325,0.429 -0.413,0.527 -0.087,0.1 -0.269,0.232 -0.544,0.397 -0.275,0.164 -0.423,0.247 -0.445,0.247 H 2.574 L 14.586,1.617 v 12.045 c 0,1.936 -0.616,3.025 -1.849,3.267 h 5.842 c -0.11,-0.088 -0.319,-0.22 -0.627,-0.396 -0.308,-0.177 -0.512,-0.319 -0.611,-0.429 -0.099,-0.11 -0.22,-0.352 -0.362,-0.726 -0.144,-0.374 -0.238,-0.869 -0.281,-1.485 V -3.762 c -0.44,0 -1.002,0.231 -1.683,0.693 -0.682,0.462 -1.21,0.934 -1.584,1.419 L 2.111,12.738 V 0.23 c 0,-0.791 0.121,-1.408 0.364,-1.847 0.242,-0.441 0.66,-0.836 1.254,-1.188 h -5.61 c 0.044,0.043 0.187,0.149 0.429,0.313 0.242,0.166 0.39,0.269 0.445,0.314 0.055,0.043 0.165,0.149 0.33,0.313 0.165,0.166 0.27,0.319 0.314,0.463 0.044,0.142 0.104,0.335 0.181,0.577 C -0.104,-0.584 -0.045,-0.309 0,0"
             style="fill:#f9f9f9;fill-opacity:1;fill-rule:nonzero;stroke:none"
             id="path90" /></g><g
           id="g92"
           transform="translate(456.4941,275.3145)"><path
             d="m 0,0 v 13.662 c 0,1.1 -0.104,1.854 -0.313,2.26 -0.209,0.407 -0.578,0.743 -1.106,1.007 h 6.6 c 1.386,0 2.595,-0.165 3.63,-0.495 1.034,-0.33 1.82,-0.764 2.359,-1.303 0.539,-0.54 0.935,-1.096 1.188,-1.667 0.253,-0.572 0.38,-1.155 0.38,-1.749 v -0.33 C 12.738,9.822 12.039,8.514 10.643,7.458 9.245,6.402 7.975,5.874 6.831,5.874 5.247,5.874 4.213,6.115 3.729,6.6 3.772,6.6 3.845,6.588 3.943,6.566 4.042,6.545 4.103,6.533 4.125,6.533 c 1.298,0 2.464,0.436 3.498,1.305 1.033,0.868 1.551,1.93 1.551,3.183 0,1.276 -0.402,2.211 -1.204,2.806 -0.804,0.594 -1.887,0.891 -3.251,0.891 -0.374,0 -0.936,-0.044 -1.683,-0.132 L 3.036,0 c 0,-1.342 0.561,-2.277 1.683,-2.805 H -1.65 C -0.55,-2.256 0,-1.32 0,0"
             style="fill:#f9f9f9;fill-opacity:1;fill-rule:nonzero;stroke:none"
             id="path94" /></g><g
           id="g96"
           transform="translate(473.29,274.8525)"><path
             d="m 0,0 v 14.586 c 0,0.483 -0.016,0.895 -0.049,1.237 -0.033,0.341 -0.121,0.621 -0.264,0.842 -0.143,0.219 -0.231,0.357 -0.264,0.412 -0.033,0.055 -0.182,0.16 -0.445,0.314 l -0.364,0.231 h 6.601 c 2.111,0 3.806,-0.402 5.082,-1.205 1.275,-0.803 1.914,-2.041 1.914,-3.713 0,-1.407 -0.474,-2.596 -1.42,-3.563 C 9.846,8.173 8.768,7.557 7.558,7.293 7.932,6.831 8.509,6.089 9.29,5.065 c 0.78,-1.023 1.391,-1.804 1.831,-2.343 0.441,-0.539 0.995,-1.177 1.667,-1.914 0.671,-0.737 1.325,-1.358 1.964,-1.864 0.638,-0.506 1.297,-0.935 1.979,-1.287 h -3.266 c -0.705,0 -1.316,0.12 -1.832,0.364 -0.517,0.241 -1.095,0.736 -1.733,1.484 l -6.137,8.25 c 1.958,0.726 3.31,1.357 4.058,1.897 0.748,0.538 1.122,1.304 1.122,2.294 v 0.494 c 0,0.969 -0.33,1.717 -0.99,2.245 -0.659,0.528 -1.595,0.793 -2.805,0.793 -0.593,0 -1.21,-0.067 -1.847,-0.2 V 0.231 c 0,-1.253 0.462,-2.113 1.386,-2.574 H -1.386 C -0.462,-2.124 0,-1.343 0,0"
             style="fill:#f9f9f9;fill-opacity:1;fill-rule:nonzero;stroke:none"
             id="path98" /></g><g
           id="g100"
           transform="translate(492.8594,282.1455)"><path
             d="m 0,0 c 0,-2.31 0.78,-4.224 2.343,-5.742 1.561,-1.519 3.377,-2.277 5.444,-2.277 2.09,0 3.79,0.743 5.099,2.227 1.308,1.485 1.964,3.239 1.964,5.264 V 0 C 14.718,2.155 13.947,4.063 12.54,5.726 11.132,7.386 9.316,8.217 7.095,8.217 5.247,8.217 3.597,7.524 2.145,6.138 0.692,4.752 -0.033,2.859 -0.033,0.462 -0.033,0.417 -0.028,0.335 -0.017,0.214 -0.006,0.093 0,0.021 0,0 m -3.729,-0.231 c 0,1.144 0.198,2.294 0.593,3.449 0.397,1.154 1.001,2.281 1.816,3.382 0.813,1.1 1.968,1.997 3.465,2.69 1.496,0.692 3.222,1.039 5.18,1.039 3.147,0 5.742,-0.902 7.788,-2.706 2.046,-1.804 3.147,-4.269 3.301,-7.392 0,-1.167 -0.221,-2.349 -0.66,-3.547 -0.441,-1.201 -1.073,-2.333 -1.898,-3.4 -0.825,-1.067 -1.942,-1.935 -3.349,-2.607 -1.408,-0.67 -2.982,-1.006 -4.72,-1.006 -3.497,0 -6.231,0.934 -8.2,2.805 -1.969,1.87 -3.074,4.3 -3.316,7.293"
             style="fill:#f9f9f9;fill-opacity:1;fill-rule:nonzero;stroke:none"
             id="path102" /></g><g
           id="g104"
           transform="translate(520.1504,274.8525)"><path
             d="m 0,0 v 6.336 l -5.379,8.942 c -0.374,0.771 -1.231,1.551 -2.573,2.344 h 2.805 c 0.857,0 1.479,-0.138 1.864,-0.412 0.385,-0.275 0.775,-0.766 1.172,-1.469 l 4.025,-6.832 3.993,5.908 c 0.155,0.286 0.232,0.616 0.232,0.99 0,0.418 -0.117,0.813 -0.347,1.188 -0.231,0.373 -0.512,0.582 -0.842,0.627 h 5.907 L 3.103,6.336 V 0.231 c 0,-0.99 0.539,-1.848 1.617,-2.574 H -1.386 C -0.462,-1.882 0,-1.101 0,0"
             style="fill:#f9f9f9;fill-opacity:1;fill-rule:nonzero;stroke:none"
             id="path106" /></g><g
           id="g108"
           transform="translate(533.7129,275.084)"><path
             d="m 0,0 v 13.661 c 0,0.506 -0.011,0.902 -0.032,1.189 -0.023,0.285 -0.127,0.631 -0.314,1.039 -0.187,0.407 -0.467,0.754 -0.841,1.039 h 9.635 c 0.638,0 1.111,0.078 1.419,0.231 V 13.43 c -0.681,0.814 -2.123,1.221 -4.323,1.221 -1.1,0 -1.936,-0.022 -2.508,-0.065 V 9.174 h 2.838 c 1.101,0 1.804,0.076 2.112,0.23 v -3.3 C 7.591,6.742 6.655,7.062 5.182,7.062 H 3.036 V 0 c 2.2,-0.33 3.598,-0.496 4.192,-0.496 2.133,0 3.96,0.627 5.477,1.881 L 11.022,-2.574 H -1.187 C -0.396,-1.805 0,-0.947 0,0"
             style="fill:#f9f9f9;fill-opacity:1;fill-rule:nonzero;stroke:none"
             id="path110" /></g><g
           id="g112"
           transform="translate(548.8271,281.6836)"><path
             d="m 0,0 c 0,1.386 0.159,2.689 0.479,3.91 0.318,1.221 0.846,2.387 1.584,3.498 0.736,1.112 1.808,1.99 3.216,2.641 1.408,0.648 3.091,0.972 5.049,0.972 1.87,0 3.763,-0.23 5.677,-0.693 V 6.83 C 14.135,7.908 12.165,8.447 10.098,8.447 8.007,8.447 6.385,7.76 5.23,6.385 4.075,5.01 3.497,3.365 3.497,1.451 c 0,-1.012 0.171,-2.008 0.512,-2.986 0.341,-0.979 0.819,-1.869 1.435,-2.672 0.617,-0.805 1.419,-1.453 2.41,-1.947 0.99,-0.496 2.067,-0.743 3.234,-0.743 0.065,0 0.182,0.01 0.346,0.033 0.165,0.021 0.269,0.033 0.313,0.033 0.748,0 1.463,0.083 2.146,0.247 0.681,0.165 1.242,0.336 1.682,0.512 0.441,0.176 1.057,0.462 1.849,0.857 l -1.189,-3.498 c -1.584,-0.549 -3.222,-0.824 -4.917,-0.824 -2.969,0 -5.554,0.824 -7.755,2.475 C 1.363,-5.412 0.176,-3.059 0,0"
             style="fill:#f9f9f9;fill-opacity:1;fill-rule:nonzero;stroke:none"
             id="path114" /></g><g
           id="g116"
           transform="translate(572.5527,274.5879)"><path
             d="m 0,0 v 15.543 h -2.343 c -1.605,0 -2.936,-0.385 -3.993,-1.154 l 0.957,3.728 c 0.154,-0.154 0.693,-0.23 1.617,-0.23 H 7.986 c 0.617,0 1.166,0.076 1.651,0.23 L 8.448,14.389 c -0.11,0.33 -0.412,0.604 -0.907,0.824 -0.495,0.221 -1.051,0.33 -1.667,0.33 H 3.069 V 0 c 0,-0.176 0.028,-0.352 0.083,-0.527 0.055,-0.177 0.11,-0.314 0.165,-0.412 0.055,-0.1 0.165,-0.221 0.329,-0.364 0.166,-0.143 0.276,-0.236 0.331,-0.281 0.054,-0.044 0.187,-0.137 0.396,-0.28 0.209,-0.144 0.324,-0.214 0.347,-0.214 H -1.419 C -0.473,-1.595 0,-0.902 0,0"
             style="fill:#f9f9f9;fill-opacity:1;fill-rule:nonzero;stroke:none"
             id="path118" /></g><g
           id="g120"
           transform="translate(587.0078,282.1455)"><path
             d="m 0,0 c 0,-2.31 0.78,-4.224 2.343,-5.742 1.561,-1.519 3.377,-2.277 5.444,-2.277 2.09,0 3.79,0.743 5.099,2.227 1.308,1.485 1.964,3.239 1.964,5.264 V 0 C 14.718,2.155 13.947,4.063 12.54,5.726 11.132,7.386 9.316,8.217 7.095,8.217 5.247,8.217 3.597,7.524 2.145,6.138 0.692,4.752 -0.033,2.859 -0.033,0.462 -0.033,0.417 -0.028,0.335 -0.017,0.214 -0.006,0.093 0,0.021 0,0 m -3.729,-0.231 c 0,1.144 0.198,2.294 0.593,3.449 0.397,1.154 1.001,2.281 1.816,3.382 0.813,1.1 1.968,1.997 3.465,2.69 1.496,0.692 3.222,1.039 5.18,1.039 3.147,0 5.742,-0.902 7.788,-2.706 2.046,-1.804 3.147,-4.269 3.301,-7.392 0,-1.167 -0.221,-2.349 -0.66,-3.547 -0.441,-1.201 -1.073,-2.333 -1.898,-3.4 -0.825,-1.067 -1.942,-1.935 -3.349,-2.607 -1.408,-0.67 -2.982,-1.006 -4.72,-1.006 -3.497,0 -6.231,0.934 -8.2,2.805 -1.969,1.87 -3.074,4.3 -3.316,7.293"
             style="fill:#f9f9f9;fill-opacity:1;fill-rule:nonzero;stroke:none"
             id="path122" /></g><g
           id="g124"
           transform="translate(608.457,287.0293)"><path
             d="m 0,0 c 0,1.869 0.677,3.283 2.029,4.24 1.354,0.957 3.009,1.436 4.967,1.436 h 0.759 c 2.046,0 3.531,-0.231 4.455,-0.694 V 1.716 C 11.594,2.178 10.796,2.585 9.817,2.938 8.839,3.289 7.92,3.465 7.062,3.465 5.5,3.465 4.39,2.882 3.729,1.716 3.531,1.122 3.433,0.803 3.433,0.76 c 0,-0.617 0.324,-1.217 0.972,-1.799 0.65,-0.584 1.458,-1.084 2.426,-1.502 l 3.268,-1.65 c 0.593,-0.286 1.16,-0.616 1.699,-0.991 0.539,-0.373 1.056,-0.906 1.551,-1.599 0.495,-0.694 0.742,-1.403 0.742,-2.129 0,-1.914 -0.803,-3.438 -2.408,-4.57 -1.607,-1.133 -3.609,-1.7 -6.007,-1.7 -1.716,0 -3.454,0.297 -5.214,0.891 l -0.692,3.728 c 1.847,-1.584 3.893,-2.375 6.137,-2.375 1.1,0 2.073,0.219 2.921,0.661 0.847,0.439 1.347,1.011 1.501,1.714 0.044,0.2 0.067,0.474 0.067,0.827 0,1.165 -1.035,2.309 -3.103,3.431 L 3.96,-4.652 C 3.014,-4.235 2.146,-3.619 1.354,-2.805 0.562,-1.991 0.11,-1.057 0,0"
             style="fill:#f9f9f9;fill-opacity:1;fill-rule:nonzero;stroke:none"
             id="path126" /></g><g
           id="g128"
           transform="translate(325.9307,235.252)"><path
             d="m 0,0 c 0.594,-0.242 1.287,-0.363 2.079,-0.363 0.88,0 1.771,0.127 2.673,0.38 0.902,0.253 1.793,0.631 2.673,1.138 0.88,0.506 1.611,1.232 2.195,2.179 0.582,0.945 0.918,2.034 1.006,3.266 v 0.693 c 0,1.21 -0.171,2.277 -0.512,3.201 C 9.773,11.418 9.345,12.145 8.827,12.672 8.311,13.2 7.684,13.623 6.946,13.943 6.209,14.262 5.511,14.471 4.852,14.57 4.191,14.669 3.486,14.719 2.739,14.719 2.321,14.719 1.793,14.696 1.155,14.652 0.517,14.607 0.132,14.586 0,14.586 Z m -3.069,0.693 v 13.893 c 0,0.44 -0.055,0.83 -0.164,1.172 -0.111,0.341 -0.188,0.554 -0.232,0.643 -0.044,0.087 -0.22,0.275 -0.528,0.562 l -0.462,0.428 h 7.293 c 3.433,0 6.171,-0.968 8.217,-2.904 2.047,-1.936 3.069,-4.135 3.069,-6.6 V 7.524 C 14.08,6.336 13.849,5.182 13.431,4.059 13.013,2.938 12.402,1.881 11.6,0.891 10.796,-0.099 9.696,-0.896 8.3,-1.501 6.902,-2.106 5.313,-2.408 3.531,-2.408 c -0.088,0 -0.236,0.01 -0.445,0.033 -0.21,0.021 -0.369,0.032 -0.479,0.032 h -7.062 c 0.55,0.33 0.919,0.726 1.105,1.189 0.187,0.461 0.281,1.077 0.281,1.847"
             style="fill:#f9f9f9;fill-opacity:1;fill-rule:nonzero;stroke:none"
             id="path130" /></g><g
           id="g132"
           transform="translate(345.0693,235.4834)"><path
             d="m 0,0 v 13.661 c 0,0.506 -0.011,0.902 -0.032,1.19 -0.023,0.285 -0.127,0.63 -0.314,1.039 -0.187,0.406 -0.467,0.753 -0.841,1.039 h 9.635 c 0.638,0 1.111,0.077 1.419,0.23 v -3.728 c -0.681,0.814 -2.123,1.22 -4.323,1.22 -1.1,0 -1.936,-0.021 -2.508,-0.065 V 9.174 h 2.838 c 1.101,0 1.804,0.077 2.112,0.231 V 6.104 C 7.591,6.743 6.655,7.062 5.182,7.062 H 3.036 V 0 c 2.2,-0.33 3.598,-0.495 4.192,-0.495 2.133,0 3.96,0.627 5.477,1.881 l -1.683,-3.96 H -1.187 C -0.396,-1.804 0,-0.946 0,0"
             style="fill:#ffffff;fill-opacity:1;fill-rule:nonzero;stroke:none"
             id="path134" /></g><g
           id="g136"
           transform="translate(377.7725,235.4834)"><path
             d="m 0,0 v 14.354 c 0,1.321 -0.473,2.256 -1.419,2.805 H 4.422 C 3.938,16.786 3.586,16.384 3.366,15.956 3.146,15.526 3.036,14.916 3.036,14.124 V 0 c 0,-0.484 0.198,-1.007 0.594,-1.567 0.396,-0.561 0.836,-0.897 1.32,-1.007 h -6.599 c 0.395,0.132 0.769,0.428 1.122,0.891 C -0.176,-1.222 0,-0.66 0,0"
             style="fill:#f9f9f9;fill-opacity:1;fill-rule:nonzero;stroke:none"
             id="path138" /></g><g
           id="g140"
           transform="translate(387.1777,235.7148)"><path
             d="m 0,0 v 13.43 c 0,0.529 -0.033,0.984 -0.1,1.37 -0.065,0.385 -0.192,0.704 -0.379,0.957 -0.187,0.253 -0.325,0.429 -0.413,0.528 -0.087,0.099 -0.269,0.231 -0.544,0.397 -0.275,0.164 -0.423,0.246 -0.445,0.246 H 2.574 L 14.586,1.616 v 12.046 c 0,1.936 -0.616,3.024 -1.849,3.266 h 5.842 C 18.469,16.84 18.26,16.708 17.952,16.532 17.644,16.355 17.44,16.213 17.341,16.104 17.242,15.993 17.121,15.752 16.979,15.377 16.835,15.003 16.741,14.508 16.698,13.893 V -3.763 c -0.44,0 -1.002,0.232 -1.683,0.693 -0.682,0.463 -1.21,0.935 -1.584,1.42 L 2.111,12.737 V 0.23 c 0,-0.792 0.121,-1.408 0.364,-1.847 0.242,-0.442 0.66,-0.837 1.254,-1.189 h -5.61 c 0.044,0.044 0.187,0.149 0.429,0.314 0.242,0.165 0.39,0.269 0.445,0.313 0.055,0.044 0.165,0.149 0.33,0.314 0.165,0.165 0.27,0.318 0.314,0.462 0.044,0.143 0.104,0.335 0.181,0.577 C -0.104,-0.584 -0.045,-0.309 0,0"
             style="fill:#f9f9f9;fill-opacity:1;fill-rule:nonzero;stroke:none"
             id="path142" /></g><g
           id="g144"
           transform="translate(415.3594,233.3711)"><path
             d="m 0,0 c -0.704,0.639 -1.266,1.496 -1.683,2.574 l -5.148,14.124 c -0.527,1.342 -1.144,2.277 -1.848,2.805 h 4.884 c 0,-0.044 -0.017,-0.11 -0.05,-0.198 -0.032,-0.088 -0.06,-0.182 -0.082,-0.28 -0.022,-0.099 -0.033,-0.193 -0.033,-0.281 0,-0.264 0.132,-0.869 0.397,-1.814 L 1.419,3.268 6.336,16.467 c 0,0.045 0.017,0.17 0.05,0.38 0.033,0.209 0.05,0.357 0.05,0.445 0,0.813 -0.43,1.552 -1.288,2.211 h 4.983 L 1.881,-1.419 Z"
             style="fill:#f9f9f9;fill-opacity:1;fill-rule:nonzero;stroke:none"
             id="path146" /></g><g
           id="g148"
           transform="translate(429.5156,235.4834)"><path
             d="m 0,0 v 13.661 c 0,0.506 -0.011,0.902 -0.032,1.19 -0.023,0.285 -0.127,0.63 -0.314,1.039 -0.187,0.406 -0.467,0.753 -0.841,1.039 h 9.635 c 0.638,0 1.111,0.077 1.419,0.23 v -3.728 c -0.681,0.814 -2.123,1.22 -4.323,1.22 -1.1,0 -1.936,-0.021 -2.508,-0.065 V 9.174 h 2.838 c 1.101,0 1.804,0.077 2.112,0.231 V 6.104 C 7.591,6.743 6.655,7.062 5.182,7.062 H 3.036 V 0 c 2.2,-0.33 3.598,-0.495 4.192,-0.495 2.133,0 3.96,0.627 5.477,1.881 l -1.683,-3.96 H -1.187 C -0.396,-1.804 0,-0.946 0,0"
             style="fill:#f9f9f9;fill-opacity:1;fill-rule:nonzero;stroke:none"
             id="path150" /></g><g
           id="g152"
           transform="translate(446.543,235.252)"><path
             d="m 0,0 v 14.586 c 0,0.484 -0.016,0.896 -0.049,1.238 -0.033,0.34 -0.121,0.621 -0.264,0.842 -0.143,0.219 -0.231,0.356 -0.264,0.412 -0.033,0.055 -0.182,0.159 -0.445,0.313 l -0.364,0.231 h 6.601 c 2.111,0 3.806,-0.401 5.082,-1.204 1.275,-0.804 1.914,-2.041 1.914,-3.713 0,-1.408 -0.474,-2.596 -1.42,-3.564 C 9.846,8.173 8.768,7.557 7.558,7.293 7.932,6.832 8.509,6.089 9.29,5.066 c 0.78,-1.023 1.391,-1.804 1.831,-2.343 0.441,-0.539 0.995,-1.178 1.667,-1.914 0.671,-0.738 1.325,-1.359 1.964,-1.865 0.638,-0.506 1.297,-0.935 1.979,-1.287 h -3.266 c -0.705,0 -1.316,0.12 -1.832,0.364 -0.517,0.241 -1.095,0.737 -1.733,1.485 l -6.137,8.25 c 1.958,0.725 3.31,1.357 4.058,1.896 0.748,0.539 1.122,1.305 1.122,2.294 v 0.495 c 0,0.968 -0.33,1.716 -0.99,2.245 -0.659,0.527 -1.595,0.792 -2.805,0.792 -0.593,0 -1.21,-0.067 -1.847,-0.199 V 0.231 c 0,-1.253 0.462,-2.112 1.386,-2.574 H -1.386 C -0.462,-2.123 0,-1.342 0,0"
             style="fill:#f9f9f9;fill-opacity:1;fill-rule:nonzero;stroke:none"
             id="path154" /></g><g
           id="g156"
           transform="translate(462.6797,247.4297)"><path
             d="m 0,0 c 0,1.869 0.677,3.283 2.029,4.24 1.354,0.957 3.009,1.436 4.967,1.436 h 0.759 c 2.046,0 3.531,-0.232 4.455,-0.694 V 1.715 C 11.594,2.178 10.796,2.584 9.817,2.937 8.839,3.288 7.92,3.465 7.062,3.465 5.5,3.465 4.39,2.881 3.729,1.715 3.531,1.121 3.433,0.803 3.433,0.759 c 0,-0.616 0.324,-1.216 0.972,-1.799 0.65,-0.583 1.458,-1.083 2.426,-1.501 l 3.268,-1.65 c 0.593,-0.287 1.16,-0.617 1.699,-0.991 0.539,-0.374 1.056,-0.907 1.551,-1.599 0.495,-0.694 0.742,-1.404 0.742,-2.129 0,-1.914 -0.803,-3.438 -2.408,-4.57 -1.607,-1.133 -3.609,-1.701 -6.007,-1.701 -1.716,0 -3.454,0.298 -5.214,0.892 l -0.692,3.728 c 1.847,-1.584 3.893,-2.376 6.137,-2.376 1.1,0 2.073,0.22 2.921,0.661 0.847,0.44 1.347,1.011 1.501,1.715 0.044,0.199 0.067,0.473 0.067,0.826 0,1.165 -1.035,2.309 -3.103,3.432 L 3.96,-4.653 C 3.014,-4.236 2.146,-3.619 1.354,-2.806 0.562,-1.992 0.11,-1.057 0,0"
             style="fill:#f9f9f9;fill-opacity:1;fill-rule:nonzero;stroke:none"
             id="path158" /></g><g
           id="g160"
           transform="translate(482.084,235.4834)"><path
             d="m 0,0 v 14.354 c 0,1.321 -0.473,2.256 -1.419,2.805 H 4.422 C 3.938,16.786 3.586,16.384 3.366,15.956 3.146,15.526 3.036,14.916 3.036,14.124 V 0 c 0,-0.484 0.198,-1.007 0.594,-1.567 0.396,-0.561 0.836,-0.897 1.32,-1.007 h -6.599 c 0.395,0.132 0.769,0.428 1.122,0.891 C -0.176,-1.222 0,-0.66 0,0"
             style="fill:#ffffff;fill-opacity:1;fill-rule:nonzero;stroke:none"
             id="path162" /></g><g
           id="g164"
           transform="translate(495.9111,253.5674)"><path
             d="M 0,0 6.831,4.752 8.778,2.64 Z m -2.805,-10.791 c 0,-2.288 0.781,-4.196 2.343,-5.726 1.562,-1.529 3.377,-2.293 5.444,-2.293 2.09,0 3.79,0.743 5.099,2.227 1.309,1.485 1.964,3.24 1.964,5.264 v 0.528 c -0.132,2.155 -0.902,4.063 -2.31,5.726 -1.408,1.66 -3.223,2.491 -5.445,2.491 -1.848,0 -3.498,-0.693 -4.95,-2.079 -1.452,-1.386 -2.178,-3.279 -2.178,-5.676 0,-0.022 0.005,-0.1 0.017,-0.231 0.01,-0.132 0.016,-0.21 0.016,-0.231 m -3.729,-0.231 c 0,1.144 0.198,2.293 0.594,3.449 0.396,1.154 1.001,2.281 1.815,3.383 0.813,1.099 1.969,1.996 3.465,2.689 1.496,0.692 3.223,1.039 5.181,1.039 3.146,0 5.742,-0.902 7.788,-2.706 2.045,-1.804 3.146,-4.269 3.3,-7.392 0,-1.167 -0.22,-2.349 -0.66,-3.547 -0.44,-1.201 -1.073,-2.333 -1.897,-3.4 -0.825,-1.066 -1.943,-1.935 -3.35,-2.607 -1.408,-0.67 -2.981,-1.006 -4.72,-1.006 -3.497,0 -6.231,0.935 -8.2,2.805 -1.969,1.87 -3.074,4.3 -3.316,7.293"
             style="fill:#f9f9f9;fill-opacity:1;fill-rule:nonzero;stroke:none"
             id="path166" /></g><g
           id="g168"
           transform="translate(516.3711,235.7148)"><path
             d="m 0,0 v 13.43 c 0,0.529 -0.033,0.984 -0.1,1.37 -0.065,0.385 -0.192,0.704 -0.379,0.957 -0.187,0.253 -0.325,0.429 -0.413,0.528 -0.087,0.099 -0.269,0.231 -0.544,0.397 -0.275,0.164 -0.423,0.246 -0.445,0.246 H 2.574 L 14.586,1.616 v 12.046 c 0,1.936 -0.616,3.024 -1.849,3.266 h 5.842 C 18.469,16.84 18.26,16.708 17.952,16.532 17.644,16.355 17.44,16.213 17.341,16.104 17.242,15.993 17.121,15.752 16.979,15.377 16.835,15.003 16.741,14.508 16.698,13.893 V -3.763 c -0.44,0 -1.002,0.232 -1.683,0.693 -0.682,0.463 -1.21,0.935 -1.584,1.42 L 2.111,12.737 V 0.23 c 0,-0.792 0.121,-1.408 0.364,-1.847 0.242,-0.442 0.66,-0.837 1.254,-1.189 h -5.61 c 0.044,0.044 0.187,0.149 0.429,0.314 0.242,0.165 0.39,0.269 0.445,0.313 0.055,0.044 0.165,0.149 0.33,0.314 0.165,0.165 0.27,0.318 0.314,0.462 0.044,0.143 0.104,0.335 0.181,0.577 C -0.104,-0.584 -0.045,-0.309 0,0"
             style="fill:#f9f9f9;fill-opacity:1;fill-rule:nonzero;stroke:none"
             id="path170" /></g><g
           id="g172"
           transform="translate(235.4502,306)"><path
             d="M 0,0 H 96.911011 385.392"
             style="fill:#f9f9f9;stroke:#1a1449;stroke-width:5;stroke-linecap:round;stroke-linejoin:miter;stroke-miterlimit:10;stroke-dasharray:none;stroke-opacity:1"
             id="path174"
             sodipodi:nodetypes="ccc" /></g><g
           id="g176"
           transform="translate(542.998,370.8213)"
           style="fill:#f2f2f2"><path
             d="m 0,0 c -2.508,0.8 -4.093,-0.601 -5.272,-2.675 -2.28,-4.008 -4.591,-7.999 -6.89,-11.997 -3.744,-6.511 -7.487,-13.024 -11.547,-20.082 -1.802,3.096 -3.32,5.68 -4.815,8.275 -4.601,7.993 -9.149,16.018 -13.808,23.974 -1.986,3.39 -5.883,3.649 -7.372,0.555 -0.461,-0.96 -0.486,-2.194 -0.487,-3.303 -0.028,-12.711 -0.016,-25.421 0,-38.133 0.001,-0.818 0.102,-1.638 0.166,-2.568 h 7.941 v 25.969 c 0.985,-0.506 1.428,-1.149 1.813,-1.822 4.154,-7.273 8.27,-14.568 12.451,-21.823 2.431,-4.22 5.896,-4.172 8.328,0.071 2.103,3.676 4.152,7.382 6.249,11.06 2.436,4.275 4.899,8.536 7.349,12.801 0.226,-0.065 0.453,-0.129 0.679,-0.195 v -26.073 h 7.982 c 0.059,0.999 0.153,1.824 0.153,2.65 C 2.926,-30.51 2.896,-17.705 2.941,-4.9 2.95,-2.585 2.291,-0.731 0,0"
             style="fill:#f2f2f2;fill-opacity:1;fill-rule:nonzero;stroke:none"
             id="path178" /></g><g
           id="g180"
           transform="translate(341.6045,340.0122)"><path
             d="m 0,0 c 7.766,1.546 12.118,6.514 12.602,14.445 0.102,1.69 0.086,3.39 0.056,5.084 -0.124,7.032 -3.862,10.824 -10.89,10.869 -9.793,0.06 -19.588,0.031 -29.381,-0.009 -4.074,-0.016 -5.335,-1.34 -5.341,-5.491 -0.016,-12.619 -0.005,-25.239 0.01,-37.859 0.002,-0.715 0.145,-1.43 0.224,-2.151 h 7.93 v 37.261 c 1.108,0.062 1.936,0.145 2.764,0.147 6.404,0.009 12.808,-0.002 19.212,0 7.983,0 8.257,-0.296 7.247,-8.207 C 4.063,11.199 2.499,9.168 -0.323,8.394 -1.839,7.978 -3.471,7.852 -5.053,7.833 -10.387,7.767 -15.721,7.809 -21.142,7.809 v -8.281 h 4.675 l 16.09,-13.056 0.014,0.007 c 4.293,-3.248 9.308,-1.126 14.119,-1.195 -5.301,4.6 -10.603,9.201 -16.413,14.244 C -1.274,-0.227 -0.634,-0.125 0,0"
             style="fill:#f2f2f2;fill-opacity:1;fill-rule:nonzero;stroke:none"
             id="path182" /></g><g
           id="g184"
           transform="translate(451.5762,351.6494)"
           style="fill:#f2f2f2"><path
             d="m 0,0 c -6.121,0.089 -12.244,-0.03 -18.363,0.054 -3.84,0.052 -5.731,2.267 -5.348,5.978 0.323,3.139 2.15,4.61 5.934,4.624 7.722,0.027 15.444,-0.003 23.167,-0.009 h 3.997 v 7.993 c -10.021,0 -19.81,0.282 -29.573,-0.104 -6.093,-0.241 -10.46,-4.683 -11.478,-10.337 -1.649,-9.17 3.983,-16.087 13.539,-16.376 5.928,-0.179 11.868,0.072 17.795,-0.13 1.545,-0.052 3.742,-0.649 4.416,-1.747 0.952,-1.551 1.284,-3.901 0.937,-5.73 -0.431,-2.267 -2.6,-2.959 -4.884,-2.954 -9.512,0.02 -19.022,0.001 -28.535,-0.005 h -2.975 v -7.913 c 11.457,0 22.747,-0.403 33.989,0.151 6.725,0.33 10.885,5.8 11.068,12.498 C 13.906,-5.908 8.312,-0.123 0,0"
             style="fill:#f2f2f2;fill-opacity:1;fill-rule:nonzero;stroke:none"
             id="path186" /></g><g
           id="g188"
           transform="translate(267.4287,370.2412)"><path
             d="m 0,0 c -6.952,0.318 -13.935,0.318 -20.89,0.058 -6.552,-0.245 -10.74,-4.33 -10.916,-10.955 -0.297,-11.194 -0.12,-22.4 -0.128,-33.601 0,-0.257 0.18,-0.517 0.292,-0.819 h 7.815 v 3.345 c 0,9.79 -0.024,19.58 0.01,29.37 0.012,3.637 0.921,4.6 4.471,4.642 5.742,0.066 11.487,0.081 17.227,-0.003 4.669,-0.066 7.084,-2.331 7.64,-6.985 0.133,-1.115 0.093,-2.256 0.074,-3.384 -0.08,-4.824 -2.637,-7.553 -7.47,-7.74 -3.571,-0.137 -7.153,-0.042 -10.73,-0.046 -2.507,-0.003 -5.013,-0.002 -7.605,-0.002 v -7.91 c 7.254,0 14.231,-0.431 21.127,0.123 6.662,0.535 11.3,5.214 12.363,11.708 0.51,3.112 0.569,6.43 0.098,9.544 C 12.251,-5.19 7.152,-0.328 0,0"
             style="fill:#f2f2f2;fill-opacity:1;fill-rule:nonzero;stroke:none"
             id="path190" /></g><path
           d="m 383.567,324.83 h 7.626 v 45.45 h -7.626 z"
           style="fill:#f2f2f2;fill-opacity:1;fill-rule:nonzero;stroke:none"
           id="path192" /><g
           id="g194"
           transform="translate(583.8223,344.48)"
           style="fill:#f2f2f2"><path
             d="m 0,0 h 28.82 v 17.802 c -4.638,0 -9.092,0.049 -13.547,-0.009 C 4.496,17.649 -1.252,10.989 0,0 m 37.014,-19.452 h -7.969 v 8.323 c 0.092,1.961 -0.355,2.839 -2.593,2.806 L 2.323,-8.318 c -1.921,0.022 -2.686,-0.522 -2.587,-2.519 l 0.035,-8.559 h -8.022 c 0,2.892 -0.011,5.667 10e-4,8.444 0.024,5.236 -0.111,10.481 0.127,15.709 0.525,11.664 8.862,20.304 20.459,20.949 6.715,0.373 13.464,0.184 20.195,0.113 2.961,-0.031 4.477,-1.475 4.489,-4.272 z"
             style="fill:#f2f2f2;fill-opacity:1;fill-rule:evenodd;stroke:none"
             id="path196" /></g></g></g></g></svg>
